<mxfile host="app.diagrams.net" modified="2023-11-05T22:21:07.030Z" agent="Mozilla/5.0 (Windows NT 10.0; Win64; x64) AppleWebKit/537.36 (KHTML, like Gecko) Chrome/119.0.0.0 Safari/537.36" etag="jbP1h76-Vm4W4DaA8Le5" version="22.0.8" type="device">
  <diagram name="Página-1" id="hL7wIm5Gjf7uObE5joqy">
    <mxGraphModel dx="1174" dy="1909" grid="1" gridSize="10" guides="1" tooltips="1" connect="1" arrows="1" fold="1" page="1" pageScale="1" pageWidth="827" pageHeight="1169" math="0" shadow="0">
      <root>
        <mxCell id="0" />
        <mxCell id="1" parent="0" />
        <mxCell id="iTIWu8l_zDlVCEhsfP-i-18" value="" style="edgeStyle=orthogonalEdgeStyle;rounded=0;orthogonalLoop=1;jettySize=auto;html=1;labelBackgroundColor=none;strokeColor=#0B4D6A;fontColor=default;" edge="1" parent="1" source="iTIWu8l_zDlVCEhsfP-i-1" target="iTIWu8l_zDlVCEhsfP-i-7">
          <mxGeometry relative="1" as="geometry" />
        </mxCell>
        <mxCell id="iTIWu8l_zDlVCEhsfP-i-1" value="2º" style="whiteSpace=wrap;html=1;aspect=fixed;labelBackgroundColor=none;fillColor=#09555B;strokeColor=#BAC8D3;fontColor=#EEEEEE;" vertex="1" parent="1">
          <mxGeometry x="360" y="125" width="80" height="80" as="geometry" />
        </mxCell>
        <mxCell id="iTIWu8l_zDlVCEhsfP-i-19" value="" style="edgeStyle=orthogonalEdgeStyle;rounded=0;orthogonalLoop=1;jettySize=auto;html=1;labelBackgroundColor=none;strokeColor=#0B4D6A;fontColor=default;" edge="1" parent="1" source="iTIWu8l_zDlVCEhsfP-i-7" target="iTIWu8l_zDlVCEhsfP-i-8">
          <mxGeometry relative="1" as="geometry" />
        </mxCell>
        <mxCell id="iTIWu8l_zDlVCEhsfP-i-21" value="" style="edgeStyle=orthogonalEdgeStyle;rounded=0;orthogonalLoop=1;jettySize=auto;html=1;labelBackgroundColor=none;strokeColor=#0B4D6A;fontColor=default;" edge="1" parent="1" source="iTIWu8l_zDlVCEhsfP-i-7" target="iTIWu8l_zDlVCEhsfP-i-20">
          <mxGeometry relative="1" as="geometry" />
        </mxCell>
        <mxCell id="iTIWu8l_zDlVCEhsfP-i-7" value="3º" style="rhombus;whiteSpace=wrap;html=1;labelBackgroundColor=none;fillColor=#09555B;strokeColor=#BAC8D3;fontColor=#EEEEEE;" vertex="1" parent="1">
          <mxGeometry x="360" y="250" width="80" height="80" as="geometry" />
        </mxCell>
        <mxCell id="iTIWu8l_zDlVCEhsfP-i-29" value="" style="edgeStyle=orthogonalEdgeStyle;rounded=0;orthogonalLoop=1;jettySize=auto;html=1;labelBackgroundColor=none;strokeColor=#0B4D6A;fontColor=default;" edge="1" parent="1" source="iTIWu8l_zDlVCEhsfP-i-8" target="iTIWu8l_zDlVCEhsfP-i-14">
          <mxGeometry relative="1" as="geometry" />
        </mxCell>
        <mxCell id="iTIWu8l_zDlVCEhsfP-i-31" value="" style="edgeStyle=orthogonalEdgeStyle;rounded=0;orthogonalLoop=1;jettySize=auto;html=1;labelBackgroundColor=none;strokeColor=#0B4D6A;fontColor=default;" edge="1" parent="1" source="iTIWu8l_zDlVCEhsfP-i-8" target="iTIWu8l_zDlVCEhsfP-i-15">
          <mxGeometry relative="1" as="geometry" />
        </mxCell>
        <mxCell id="iTIWu8l_zDlVCEhsfP-i-8" value="4º" style="rhombus;whiteSpace=wrap;html=1;labelBackgroundColor=none;fillColor=#09555B;strokeColor=#BAC8D3;fontColor=#EEEEEE;" vertex="1" parent="1">
          <mxGeometry x="210" y="250" width="80" height="80" as="geometry" />
        </mxCell>
        <mxCell id="iTIWu8l_zDlVCEhsfP-i-16" value="" style="edgeStyle=orthogonalEdgeStyle;rounded=0;orthogonalLoop=1;jettySize=auto;html=1;labelBackgroundColor=none;strokeColor=#0B4D6A;fontColor=default;" edge="1" parent="1" source="iTIWu8l_zDlVCEhsfP-i-12" target="iTIWu8l_zDlVCEhsfP-i-1">
          <mxGeometry relative="1" as="geometry" />
        </mxCell>
        <mxCell id="iTIWu8l_zDlVCEhsfP-i-12" value="" style="shape=image;verticalLabelPosition=bottom;labelBackgroundColor=none;verticalAlign=top;aspect=fixed;imageAspect=0;image=data:image/png,iVBORw0KGgoAAAANSUhEUgAAAnwAAALaCAYAAACrqI6lAAAAAXNSR0IArs4c6QAAAARnQU1BAACxjwv8YQUAAAAJcEhZcwAADsMAAA7DAcdvqGQAAG9KSURBVHhe7d0JnFxVmbDxk0QWF9xFVIIEA6i4KypBY2IABVdcAEUlghAcHeFTGdEJEgSdODoOjo6yCAMiGkCRESFKEolowuK4IaJAJAhBRFlk35Ovn9P3hkqll6o6VfdWn37+/kqqq6urU6ffe89737PUhDUDgiRJkrI1sfivJEmSMmXCJ0mSlDkTPkmSpMyZ8EmSJGXOhE+SJClzw67SveLav4Urr/tbuPm2u4pHWvOkxz06bDN507DtFpsWj0iSJKlOwyZ8Z13w27DN0x4btnzGU8PEiUMXAh966KEwadKk4qsQVq9eHa65/sZw5Q23h7dOf2HxqCRJkuo07JDuDX+/NWz2pMeFjTbaKGy44Ybr3DbYYIOY7D14/W9iwlc+znP5GX5WkiRJ/WHYhO/+Bx4IFP+4UbkrbyR699xzT7jvwmPCg+d8PDww8Lzye+Xz+VlJkiT1h2ETvvvufyAmd43JHre777473LPsa2H1JceFSe9fGO5esSzcf//9a7/Pz/CzQ1k4Z0KYMGH9245fXlE8o9HCMGfCjmHIb434vW7r/HfF9ztnYfFVYcWXw45tv16V71eSJOVmhIRvMIkjgStvJHb3/vJbYc3yL4cH9/1puG/ZV8Kasz+8zvO4z88OZddjByuAa9acGw4I08LRVw1+veygqcUzMjKQ2B112QHhgMuOWjdRm3pQWLZmWcjxLUuSpP40fMJ3333rJHvlbcKSw8NGH708TPzK88KEgcRvww9fst5z+NnxbsU5p4ewxyHhkD1COP0cS3OSJKk+IyR896+XyD344IMhPH7LcNttt4U1D9wXJn30ivjYHXfcEW/M5xtM+Iau8A1nnaHe5iHQqxgCHWnod0AcJi1fY04YfIXBYdA5c3Z8+LF1njchNP+qtRqet+OXryweLAz5u5qtCDHfe8PUMPUNMeMbeKTUNDw73OsN+28Y7X0NPrbiy3y/fGzgNuyblSRJuRs24bv3/ocrfFTsbr755pjo3fWOM8Kkk2eFe3f8eLj99tvjAo6vfO+CcMqPLgp33nlnTPr42XasM9R7XOMQ6PJw8FEhnMz3rjo6hIP3GWIe20ACtPXpYY9ieHjgJcJRa5+0PFz23JMHHj827Bqfd3B43rnF8wZe77LdhpoXt+7zTg6nh+OK74z8uxqsOGfgp/YIA/leGMj4Bu6dHoYu8g33eiP9G9D8vtZ/jakHLRv8mjYd+N+5x+5a/KwkSRpvhk/4BpK8xrl5c09YGOaddF749wXnh0/c9//CJy95crz/o4v/EA7eY2b4zYq/hG8v/mWs+PGzbVk4p6hE7daU2EwLR598UIjT3aYeFOYesDxcflX8xsNWXBkuIzHcuqhk7XZcWL72SdNilS2KzzsgvLXMe0Z6vWlHh0OK5009aO7ATxVG/F0PGxzOfcPgv3vg/ynyHfyFISpsw73eSP+GqPl9Df9vWjhntxDOJTGUJEnjVctDuv/+wbeEd+/80vDmVz0v7P26l4U9Z70kvP4Vzw2vfuGzYqVvw0dMChMGfo7ntjWky3AkOUmsRl0Vjp5WPL6eFeHKy4q76zmg+Pni1tNq1mi/a2H4wsHLw/KDtx5MwAZuWw98HY47a+A7Q+nGv32Y1xhIpHcL5waLe5IkjW8tLdogaeG/fPrGNxdeEk4ZuC1Y/Muw8MLLwsYbTAqfO/Un4dnPfGrY87UvjglHW4s2rro8LJ/23LA19xkKHciNHrb84QUP8XsNFbrS1G3C88JxQw+tNiqed1aZdQ0kmkcdN8zrLT84lAW5FV8+6uGqYyu/a+FZ4bhpR4erGhOwmMg2/O7ScK830r+h2bD/poVhsLhntidJ0ng3fMJ3//3xEzX4JA3m5TFU+9F3Tg9HzN4lzBu48V++Jrn71/fMCu97/SviJ21wG25bliHtekg4OhwctqYats/l4XnrVPimheddvs9gpSzOaRtqaHLXcGyc3/dwRW3oBQqDz7tst+I5cd7bMK937gHhuOJ5+4Q9GoZTR/9dC886LkxbO5xbYlh3WjhuvYxvuNcb6d/QbOjXYCj3uIH/7VY+tuOXi+dLkqTxZtjP0t11zmHh65/cLzzykY8MP/vdyrDi+pvDDTffXnx3fXPfu1P8zF1W637w304IC489sviO1rUwzJlwVnhrXHAhSZLUe8MmfO86ZH5426teEKa/8qVxWLIVVAOXLv9FOPPnl4bvfOHQ4lGtgwUqRz03XLWsWIwiSZLUY8MmfP/7k+Xhh0svDlesXFU80pptp2we3jjjFeEtrx129cX4xOKUrQ8Oy+MnjPhJG5IkqTrDJnySJEnKw7CLNiRJkpQHEz5JkqTMmfBJkiRlzoRPkiQpcyZ8kiRJmTPhkyRJypwJnyRJUuYm3HLLLe7DJ0mSlDErfJIkSZkz4ZMkScqcCZ8kSVLmTPgkSZIyZ8InSZKUORM+SZKkzJnwSZIkZc59+CRJUsfOueTq4l7vvOHlWxX31CkTPkmS1DESvl4mZL1+/fHCIV1JkqTMWeGTJI1bX/zGGcW9QR//wDuLe+NXu21ihW9sMOGTJI07ZVKz3/veHf9bOuGb347/HY+JX6dtYsI3NjikK0mJ1qy5LiyfPyfsvPPO8TZrzpywYPl1xXeHt2b5/Pj8+cu7e929fP6sMGvW/LB8zcivO9Lvv275gjB/wfLiq+GVrzFnwfrvt1fvLxWJzUf2f2+8PXqjSevcysebq1yN1ly3IMyZNSu+t/I2a9acgfYabIN+fd8jSW0TcBwsaOM4GIvtNJaZ8ElSAjq50w6cHQ5bOTMcceJ54bzzTgxHzgzh+MOOCguuG5sd2Zo1y8Ophx0fFl1TPJChR2/8iBFvrdhqvxPDokWL4u3InUNYdPzY/ZujfO9v2OnV69xaaZPyODh+4Dg48bziOJiyYsTjYMK0Q2PbHTptQvGIesmET5JSXHhqOOHqiWHnffYM0yZPCBMmTA7T9jo2LFlybNhr4GtQEZo/Z7AiNGvO/GE7wOGeRwI2f9asWDGhshSrd02vcd2CwcoKP3dB8Vip1d+PwY77sLBk4sQwccnhA89fEK5bs2bg9eevrWo1VrPWuubUtd8fqtqHdt/fsM9PqAxRpfrsIQeEx2y8wYg3njNaRavRDtOnhIkTrw7XDPHWh2s73h+Pz5k/P77P5nZd5/2P9L1R/qajaWyTGa/aoXj0YTw2apsMHAfHr5ga9p+7Z5g8oTgODl2y9jgY6m+87Afr/h3Xaycrf11lwidJCVZduzKsXr1V2HJy8UATOrrPzz4+LJpyZKx8nDRzZTh+9oHrddAtPW/FlLDP4sUDneihMbks0fkfdfyKWHFafMz0EBYV3xjA9w4ceN2VM08qqi6LBl7388MO99JR73nMkWHW6tVh9awjwpJj9wqbrzpt4PVXhpknLS6qWSvCouNPXec1VqzcMswd+LeduN9W4eoT9l2vs27p39Hw/nbY/MKW2q0Td977YEu3dlx4waKBOJgVpjflS4N/m9Hbbu9jTgr7T334e+vFw5FTwpKiXVuNqXaM9p5H+z7vP4QpYYvNB78eVmMMP7l4bMBgOw28xs5HPtxOhw0fp2qfCZ8kJbjumhUD/z98R7fqtJMH8q+pYf+9d4iVj813nDnw1Ypw/rJVxTMGtfS8naeHaQPfa7Zq2fkDz5waZu64+UDCNi1M37n4xoB1vzc57DDwzYkTl4QLLiye0IIJk/cKxyyeG7ZYdlqYP2dOOHwJXcfKcG3DP23qzB3X/ru3GkgWVzZ+c0BL/46G9zdSe6QOBd41kLi0chsNiS3VKG60ydSBf39z3t96200OW0wpHsCFF8Qq684DGSTvf3LDe241ptox2ntutU1QVvPKtlkn+R8mhksrFp0c5sxfHibvXSSFIzxX7THhk6QEk7ecOvD/63bgI9p8i4H0cKBjG2rsr1GrzxvC4L/pYQw1nrDvLrHz3eXwJfGx5oRsJLE6t9PscNj514Qt95kbjpi1uvjOw6aUGe8I/+6kf0dCezS7676B5KWF22ga5/CdeMSscPWSw8NRp637flppu6FQOW5ZF9pmtPfcapuAi45DlywJ5w20SatIjPfZf2qMEdpx34E4mTN/cDqBusOET5ISbL7F8HO3hrTq2oH0MISpw40Bl1p93hAGq44PY8h5vxPPW5uccDt2r9Zft6zO7T/3E2GvaeXPrVvVXJu4jfDvTvp3JLRHI7YWYZuRuweSl5FuPKedrVk232F6HAZvTrpaabuhEFctS2ybxjY56czFxaMP47HR2qSTynEz5r4y3H/iEfuFWVutHkj8TginJrye1mXCJ0kpdtg77DfQOS06+bTBhQZs0VIsoGAoqxxuO36g56Ja0Ti02ajV5w2lcUiP4bQ4narQPNzH4g4mxLc736tMatdcV77+ulXNFecva+n9tfrvGKk9urGdxz33PzTirV2riiHYoZKu0dpuSEUCuWggg+L9UymMCzwWXJcUKyMp3/vXF/x4nVtLbdJ8HAy819NObgjEUZR/0wNPC2HytL3C3jMb5iWoK0z4JCnB4CKHk8L+U84Ph++7S9hll33DYeeHsN8RJ8b5VnEO10n7h51XHhb23WWXMPv8KWH/k45Zu4K31OrzhsLPzt1/apxTttOBF4TQ0FfG12XPkONnxw519vHMix/5dRmS25vhNVbpzpofrt3jX2NnvuTwXcJOs08eeIHBobfGYtbUKdeEo3baKex7wtVh6v5zh35/bfw7UtpjNFSpzvr+9+LtnvsfXOdWPt5Kda9xDt++hy8JW806IszdsynR3XPuqG03FP4Gn2h4/7vsewINFiuivWib1DZZ7zjY9/C4apc22Xv9hb/rYV4mw+IPx8fKMGu/wWNI3eEnbUiSxq3mbUZaSfRy126b+EkbY4MJnyRJ6pgJ39jgkK4kSVLmrPBJkqSOUYHrNSt86Uz4JEmSMueQriRJUuZM+CRJkjJnwidJkpQ5Ez5JkqTMmfBJkiRlzoRPkiQpcyZ8kiRJmZswb9489+HrwNKlS4t76sSMGTOKe+qE8ZfG+Etj/KUx/tIYf52xwidJkpQ5Ez5JkqTMmfBJkiRlzoRPkiQpcyZ8kiRJmTPhkyRJypwJnyRJUuZM+CRJkjJnwidJkpQ5Ez5JkqTMmfBJkiRlzoRPkiQpcyZ8kiRJmTPhkyRJypwJnyRJUuZM+CRJkjJnwidJkpQ5Ez5JkqTMmfBJkiRlzoRPkiQpcyZ8kiRJmTPhkxr8+c9/Dj/5yU/Cz3/+8/CPf/yjeFSqxp133hm++93vhrvvvrt4RO247bbbwsqVK8O1114b7r333uJRSTDhG2Puu+++cM0118QTW7Pbb789/OpXvwrXXXdd8Yjacf7554eTTjopXHLJJfH+17/+9ZgAqj1r1qyJN7Xvb3/7W7jsssvCTTfdVDyiVpHo/frXvw433nhjPG5/8YtfeNHWhD5i6dKlMSFuRr/xjW98Iyxbtqx4RLmZMG/evJ6fmblaPfbYY2OyUpo4cWLYe++9wzOe8Yz4NVe2xx13XLj//vvj16VJkyaF9773vWGzzTaLXxOwBGXj83jOPvvsEzbddNPikd7joKnDihUrwqpVq8KECRPCtttuu7ZdSAAvvfTS8IhHPCK2zQ477BA23HDD+L1+NGPGjOJef/j73/8evva1r4X3v//94b/+67/i17vuumu45ZZbwgc/+MHY3v2krvjD6tWr4/E7FGKTjoPncDw+61nPGva5deq3+OMi449//GO45557wg033BCe/vSnh4033jhst9124aUvfWnxrP5RZ/wNhT6GBK/5+CUWt99+++JZ/aOu+Pvxj38cLrzwwnhMvuUtbwkvfOEL4+MkgKecckp8/MEHHwwHH3xw2GSTTeL3+lGV8ffAAw+EX/7yl7FdSvQHL3jBC9a2EX0uz3nooYfi1yWeRxs/5jGPiV+TA1GUaXwebc5zHv3oRxeP9E4lZ2IORhKSnXbaKXzoQx8Ke+21V3yMq6+yGnDXXXfFZG6XXXaJz+G2xx57xMcbn0diyPM4mHnO29/+9vicoSpeOaIjffKTnxx23nnncOWVV8b2IBAvv/zyMHXq1DgcRDvdcccdxU+oFSQqtNu//uu/xgNvyy23DB/4wAdixaXxQmU8Y4iMiwoqAP/3f/+3XvWEqhQXJBzn73nPe8Jf//rXISuk/ByP83zaXCEew9zKjoD/lo9pdPQJQx2/9A224cNIXug/OEbPPvvseIxyfvve974Xttpqq9h/EHtcdGgQbca57/Wvf3046KCD4rmNx7g4K5Hw0Y677bZbfA63d7/73Wt/tlQ+701velN8zp577rn2sSpUUuHjxP7Vr341LFiwIL7BP/zhD+G5z31u2GCDDdZe/XOw8sbPPPPMsPvuu8fHfvvb34YXvehFQz7vhz/8YXjDG94Qr+pe/vKXx2rh1ltvHZ9ThbqucBnOvf7668NvfvObmBwzfFFelS1fvjxsvvnm8faoRz0qPPaxj41XII973OPWXmH0i36rsJCofOtb3wpnnHFGeMc73hEfI6Y4Ef7Lv/xLrCL3kzrijytTjsXZs2eHhQsXxgsOjr2yknzFFVfE45OqCpVmTpAkhy972cvi90H8cuP7xOxTn/rU8JznPKf4bnX6Lf5KV199dfjmN78Z9t1337DFFlsUj/affqvwUYnnYqT5+D399NPDtGnT1vYf/aKu+OPvxjFZ9h8333xzPKZJjBv7D5JC/vu0pz0tJs9U6/tplKPK+KM4RQW+OX+hTyjbhPMeifJQ+ctQz2vOX6gWPvGJT4zP6aVJA4E3r7jfM2WDcSA+73nPC49//ONjI9AYvNnyxkHwrne9KyYreMITnjDi8xjy+Mtf/hKOP/742GBPetKT4s9VgU6rDpy4SPgY5uEKlk6TNuWq453vfGe8uuXg5SDmJEipnudzJcdzadt+SF44ifQTkuKrrroqHtR/+tOf4vy9s846K7zqVa+KV779pur44wqUZOSoo44Khx9+eHjFK14Rp2lwUVEORVBV5uJu1qxZMdb+4z/+I57cSOrAY8xP48qXEzbH7znnnBOP24022ig+pyr9Fn+lW2+9NXYUL37xi2NM9qu6zn/DIZY439HhNh6/JM30I/2mrvijXyDJKPsPiidccDX3H6DvIDHk+STTnAOe8pSn9MVUoSrjjyodfWhz/sIxynmQ2ytf+cph85fhnteYv3COfOQjHxl/rpdqqfB103ir8DEURrD/7ne/i/N7RsLVBEOVS5YsiW2/ePHieKUxefLkeKvzqpeg7ycMMzK/hau3Eu1D8kJ8caLsJ72KP6ZG0BacfDi5l1emJG5UAJj3wwmK+baf/OQn10lM6DyYNE/HUMYWF2IkhWAI5OKLLw7HHHNMmDNnTrjgggvCa17zmvD85z9/nYs1kh6G6Oh8eLwXlYV+iz/wnjlG6VxpV2Kv3yrzpbrOf8Nh2IxEj7l7JeJmypQpsVJlhW8QxxwL0jrtP6jMcxFM1bTOwkGdFb5uqrrCV0nCx0H43//93/EqnoDpJjoiDnaqBttss03xaO/VccJjvh4d6tve9rY4VNEuhtzmzp0bhykZ6qUszVVGHfqlw2VO5EUXXRRPgiR1BxxwQPjwhz8cE+svfvGL4Uc/+lG8UiPReeYzn1n8VP16EX8MxVLFox24quUExBVtmXCV36fz5LgjISSGGhMyfo75fSR/DOWW1T/QgTCxmStgFmL94Ac/iBcvXPmW5wVWWtL2VBF4jV4N+fZbwsc58uSTT47tSptSCeV8yfB5FR1Bu/ol4SuTEuKI9hrq+OUcxwI3KjP9oo74Y/oPCx7f+ta3JvcfLCpijn1dVegq44+KJ4lZL/OX5oveXqkk4eNNffvb345XYFxVMLGxG6g4MB+Blaqs0q2iJFqq+oTHcBgdKXMrOImxEm3mzJlxAUy7GOpgNRsVF1YHlSXoKvVDh0sliiEgTmQs/vnP//zPWPlsRCLIKl2Ge1kow+rnftDt+OMYZfXeG9/4xnDiiSfG7Wk++tGPxvhoHBKjWk8yQuWJYaHm6huvwzFJIv2Sl7xkbXWvRMz9/ve/jxcvJINcpDVWCEm+3/e+98W/BR32Zz/72Zg4drvS1U8JH21F1RTsAfnsZz87tjHHN+c05vP1osqZoh8SPmKNxWrMQxvt+GW+KVMzmr9fl6rjj6SCyjrHUbf6D5JtLtzok6pWZfxxfHI8MmWgF/kLfxPOs1WMIlWS8IEr/9NOOy1ewXOVwUk9BWVmrlToUHitqpOWqk94JMusnPrZz34WPv3pT4dFixaF6dOnh5/+9KfFM9pDSZ9Juwzf0TFXPS+j7g6X5IJFGrQpJz+GGIfrVElOmO9C/HKSZBiybt2OP9qDhG/+/PlxkUo54ZjqWjkHD+WwLG3FUETzRRbDkizuAFMsym2XGvHaDNty8qRKWCqHTk444YSY5HCMs5qwF8Md/ZTwccHxne98J8YXVZMSFT8qfJzf+m0ead0JH8keQ9/ETDvHL3Pn+mH+ZtXxx3QVqlTd7j9IJPfff/91KvlVqDr+yqSPKS/dzF8YLakq2UNlCR/KpI9hIU7inU6m5SCn2kVnUUeyhyoDjpIyQ2EMV3BFVp4sjjjiiHjwdoqOmeSFZI+ScpVVhDo7XK5MGZZg3zPikSHyRiQctAcJTYkDnhPb//zP/8RqAkOddepF/DFdgBggyTjvvPNiVYQ9zBoXVJQJHxjiZo5UIyYhs+KZmOL4ZiitEccuHQ9/g+aEj8c4rrniZU4ulQSG6/g7dHsopYr4IylhTijtSHWA98cFKnPKqOKVQzjMjeL4pjNpPPFz3JPo7rjjjvE45WtiluFKEmZen7aiakU8dno+7UTdCR+VPdq03eOX6jVD5lXu2TqUKs9/TBegusf770X/wQUhiz6q7D/qiL8y6aNI0o38hYvlKpM9VJrwgX3N2OCWOQSsCuoEJ0eGeVjp0tyhVKXKgONqimCjEkAnSOLH+6Ya0jxk1i5Ojlz98noswa9KnQkfnQXxRzXrE5/4RPHoIDplqlJcfRGnjbhgee1rXxvjj3lCVV/VNupF/DHETYyReJBMcELjhNSoTPg4STFpm/l3jSd6fh50uAxZNG7JAirVzAVEc8KH8vtc+dK+VAlTY3wovY4/5ktxUcH5jngiIaO9uNglAQT7ZrIwg0oVqyGpjjYuLqB6wt+AzoU2poMlBknwSBhJxFlJSSfE90nOeb0qOpA6Ez4SGKYFdHr8Er8kg1V2tM2qPP+deuqpcSpGL/sP9pWrcoPwuuKvnM/XjfyFc0LVw+GVL13q5lVAlVcUdeFKnjkqhx12WOwcWZzCfB9WW410sNJZ0BlTwh8JQ2cMUzLUTiefOxJn5kmxCvJjH/tY8eigsq15DokNJ0mGg0p0EKxOpZ1IZnJDAkFyQUWJCh3t0bjqsRFz/YgxqiyN2JqFoWBijyvZxpjiPtsD8TuGwsmU7Q/K5IUOpBfJXq8RNwzH0p4sTCGBZd4UW9BQ8SNJo7pC+xJPJLm0VZkIl6jk0cZ0MFRfOVa5+ONxKrBsnMvwOF8feOCBsQNnmgLD87kioeNclXL8El/NbZ0rYov5x73uPzin5hx3pbGev/TXWnWtg5MbByyVACYeg6oHV1SjDUkwFEYHwME+EoKOK2UWhTAclztO9HQEhxxyyDrDhHSeDLFxUqQ6w6IF7lMtoDMuMaeNFbt0tLkmyFSZymkSDM9SGWnGJ93QNo078tMetBWJGjc6XpK4EskjcUaFoRmxTqzyM/xd6lo9nor3QRWFoVY6VSofzSd22o3VjgzPMnRNEszPNVctSBBBzHEsMyzXuGq6xBAx214xD5BjmCQzV1SfibHU47ds85xxLDFXr4r+gwSbYUr1NxO+PsZwEFeon/vc59ruAJmrwhASE3NHw/AGV2lUV3I/CTKkRvWKjrjRq1/96rh10Fe+8pV45cteU9ynItC8MIE5Q/xd+Pvkio6BkzkJGhWVZlSvWKFHhY+hYJDc0cmQ7FGBIXGk4lciOWQYl7ZuxveYG0MnTns3JzVjBR0kneUXvvCFURcHMD+PxIQ441hleKxMrulsSQrZ74yVfM1D60NhwceRRx4ZhzuH+pvlgCpeN45fqlGNFyM5ohpMYltV/0ElmuNf/cuEr09x4LC3FENb5UcFtYrO4ktf+lLcRoSru1awyo0yPp1uzhjyoSOmAtOIPbq4CubzmUl2qKQwT4+NNpuTD+anoXk4MydlwkcSUSZjzdiagedQUQFJMF+z6pt5ZlQRyiE1/sscNSaO05E0ImEkQWH+GXNa+N1jFfPx2KOM+cWtoL2IMyp0P//5z+NnwVKRYhI8c2qp1rWzfxwfes+8P+b15YhKUreO38bKX264UKNiXGX/QTLO9AL1LxO+PsWVGSc3Psqq+YQ1EjpOrmDpRNvZFJM5WWzGPNycrVyQSDeuOm1GW1OhosMYTvnzuQ7pgiFd2oqJyc961rPiQoPmq3f20KMCUA6PUc1jxR5DjGXiV1b4GGrkNUlkmpWrepnXxnB7Havuu4XkmOpSuwsCmIP3T//0T/Hj6Ggj2oQqS7ubsRKbtHuu1WfirFvHb86jGSwCIgGruv9gQZz6lwlfH6JjZWI3HQdXWa2iU2YVGid7hsZGOjE2Y9iDfZVyrlqB4R6uQrkCHs7ZZ58dKwXDYV4lxuKCglaRdNFR0FasdqT6O9TVO/OBqJRQASS5K4dyQcfL9+g8iEmqhc376ZHgcZHB9hDEPX+XsVzhS/n3f/7zn4/b3Hz/+9+PHWin+z3Sju108mMJ57RuHb/tnB/HEi5EmQbQaf/BsUzbdNJ/MKUh92lBY5kJXx+iE6SDPfTQQ1s+cbNpLtUWKinlKsh295piSI3fyy1XDAcxtMhGpJ0644wz4smQobtcUaHixnwwOg3m67HgpXneExPgmRzP/E+SO5K8EpUmkg+mJtAJMezTiE6bShbPO+igg9ZWB8ZywkdCy7BuJ3jfzNsDiXQnGBVg24e695nrFYZuu3H8Mq2AilSOWAlOda+T/oOLL1byopP+g2Qx92lBY5kJXx9iWIjhMoZz2CT08MMPL76zPq6mWGbPlVm5JQbVPTrTdvco5IoQrITLFfu60Sl//OMfjyfFdrEz/Te/+c1YyWIYMld0FFT5yiSMRQgkdiRojUhSmK/GRQrJXWPCV1b7GPIlqWM+USOq2CSCX//612MCTXJJkjmW25Vjjv3ymAfVifKjv9odyi2xSIGEqJynlhuOXapJqccv8yOb55LmgvjrpP+gz2CbFY57qvKd9h8sWlJ/MuHrM3SaJFx8msO5554br9b4dIeh8DwqL2xzwUFKB8t/yyusdj/3lQOcq95yon2OOMlTlSJxYWUf+5mRYI924yTGqj9WB1JlqHPj6KqQzLFZK0kZyR7zy+gImtFJkNhxI7ErMZePz7mmUyFGy6HeEtUoJtaXn4hAcjmWV+iCY5AFBczJ4/1VifZjaJyJ9ltssUXxaF6IIc5TDD92evxyUdEPH6/WCyRtXEi1239wobHffvvFJLFc4d1p/0F7qz+Z8PUhOkgOnH/+53+Om4sOdcCyoo9q3re//e34OZtc0ZcTxamocPBxddcOKitUwHLfroCPBGP/M+YCve51r4tDs+zXNdKNE+JHPvKReELk4/zG6j5x7SDhY1VzuSiDTy9gU2ZcdNFF4dhjj41bPhCDJGok0wwjsTKSlYFU/tj+ggSOFYPsnca2ITwfrCZl1S7P4fVJWMbycC6oVL75zW+O+zTy/ludHsH7p7PmBpJsHmsV89L4UHd+Zqi9/3LCBRfnO+aLtXv8EqPlKEiO+PsTO632HwsWLIhDscQqxQIQuyn9R+4L/8ayyj9ajWBgvyQ+06/TYQfmCzGRnLkGlK7r0KuPduGAZT4FK/XYlwtMwGULDCpTDK2xISsdKle7fMRS4+IBhjk4YPlAcQ74dtGmbBzLLuu9VHeFjBhiDzTaj+0cmqtPzWjXz372s7F6Q0Wr7mHHKj5aiEoxq/2IBRbzlPP0SrQZFxkkOSR8/Jd2KYfKqFazrxxVQapdJD98TYdUIjGhA6cqxdwzFi2Uw5q91Ov4YxNajlOqUGyI3DjfkyFXPqmFpJntU6ioUBXhcdqKpI/Ol3Zh6JE24Vz5yle+MlZdmuee0XmzIIafp2JDVbXXqoi/kfBeOc+RlLRz/IIqbN3Dub2KP/oPKvHEw2j9BxdXrMglIS5x4XDKKack9R/MryS57qW64o/zH9M1upG/8POdTt3oVOUJH59juHDhwlhep7PtBJ0PgcWcoNe//vXFo9XqZcBR6eCkT2dL58d2FQN/pzg/iq0aqLJwgiNgyqoe+Bk6TYZz+NlOqlCf+tSnwr//+7/H+Ri9rBLUmfBxUmTeGCc8Dt5WP8+Q4SM+YYK2Yc5Lnao44ZGgcbySrJBssD0LyQfxRVLBpG4uNogz4rG8NaKtSfy4kcwwz5T5flQNGWYj2aGTYd4RnzzBdhpVfL5kFfFHMsc+emxvwacRUNGk2rJ48eKYAFNlItGlXRn+Zn4aSTNoe85ztBHtw61MBFlEw0UHlRlW9vLa/A46oao+m7POhI+YIqEm/jo5fjmnEsd16mX88RnOJBUj9R9cTDDKwYVaiZhkPh/TN1L6jy9+8Yux0t/LpLqu+ON4ZDpQN/IXLuZa3eewWypN+DjZk9mye/wPf/jD4tHOcPXByZMhoSquaJv1MuAYUuWzM6mWMNeEg5f5Fhy4DIex6pGDt7HKRIfKzuoctExMLudFtYu/D1sa8DfqZRWrzoSP1aZc/R599NHxSrgdXClTnfnoRz9a67BZFSc8OlY6VE5K/L7mLVW6haofQ0psR0I1sUx6eqmq+CO5JeljXhWYTsDehiQevNdWh7CZV0tFkItlVpkSw3TWJIZ8CgevV0W7lepM+KjucYHQ6fF7/vnnx/NbnXoZf4yicX7j4muo/oNqMvP2Gjev5mKC77HLQ2r/wbxchpKbN8fupjrij6knnA/ZLqkb+Qt/I/rxXrZTs8oSPpIYhnIpiVKVaqxMdYJhISoGJCVc7Vad9PU64EjcOPh4j7xX5lJxxUXnyLYrjZtikuxRTeCg5kPbuXLrFFeHlPupnvZyPlWdCR8dJx9mn4JPNOAquS5VnfAYCuNCgnigMsXJiXjjOKbj5UYyQuLBCZH4JFEECTFVLI5RYpfqFBVBYpf7fI/XYrI4w+skllS6qlBl/DFXlItTKh9sP1POH6PNWHzAx/3RCdPWPAbaiwSbKgBzdJkbVVZcaGOG5vhUjt13372lj13rtjoTvrLKkoKKdScVrG7pdfzRXzDaQ59AvBBnvF/6Eob9Gxf18P3TTz89xmG3+g82Ee/l1kBVxx/nNj46jrbqZv5CFbRc6FWFyhI+rnT5+CAmNHdaCm3GsNA3v/nNGKCcEKtUZcDRgZZ7mZHYNgYHj7GdBQc25XiuYFNw9ctwJRN6e5nQ1JnwcXXGCZBOs10MrTHkzRzLqsvxjaqMPzoPLig4MRFvZcWAqkCZ3LWKJJCTHPPQiGWGjy644II4xEb1qyp1JHwkzCS8VDKXLFkS56Bx0gftQidSDomTCDcmz3TWHJMM4zLvigSRzZkZ4Wicg1WVOhM+jl0uMlKOXy6ae1WxbkWV8UcsUbXjYoJjuLE4QoyxcIP+pZv9x+zZs3u6Errq+Cvn7vUif6lyLl/lCR/BxSq+bmAeB5WH3BO+4dAZkOxRGaBD4cotFVeFL3vZy3oehHUmfAzJ0uEy94ntM1q9uuKkyFAFHTYl+To7jKrjj4oKlRU6SoY06DSID6p1tB8JCZU8kpbmRRvcqFiXVUESSD55g2kLP/nJT+KFBVWqKofI60j4aDNO8gy9UmFiWJH3zbmLeZIkwWXlgDZjCgzJNQkOmzkz+Z45lVQbytcajwkfw9kci50ev2eeeWYcTm+cv1a1Os9/JY7P0047LR7b3e4/er2gsq6Erxf5S1YJH0FFYsJJnvH9U089Nc5h6QaCi1VrzP+h2kKH0TxpvFf6IeHjBEZnwlA5K9W6gX3XuIJh9VsvS/J1nvCoqnDSpyOlk2WHeeZSEEO8Z4Ybiduyw2UxASunOUAxc+bMtduT1KXq+KOyR7LB/l7ltiqpWE3IVi2c9GjzKlUZfxynDFmTLLN6kTZsrp5zjqSNiTtwHiNxbk6CmfD93e9+N66i5GKPT+Soahi8UZ3nPyrLHJMUEaiYtnP88jiVp7r3KeyHhI+qH3/HXvQfDOuO9HnGqaqKv7LCTsLHkG4v8hfaqUz4en3R29OEr5y3Vw5bcEJj/kq3kjIOXg5+Xo+G4gTJfCA+wL3X6k74KM9zxUF1k7Jwt9A5MbzGQdtY+u+2fjjhUSmgcsJ7piMlPodCRYaYokOhItM4f7IudcQfnSZ/Nz4ijWofFSY6XbZvoXJHFY9jvUxaOCZpO6p/JNYkOZzYaEsqWlRaqfpT7apywQGqjL+ywkdVmeEu2outVEigSdoYZqQtaUOqd6BaSpxxDLKKl06BqhQXGjzO4g323RuPFb4S0wqoFNOexF4Zd83oF6gCUpGnPauOtaHUff6jzTj2KJb0ov9gz06mIPRKFfFHlZ0+ln6BxI9bL/IXzpPlrdfz+Xqa8FHVY/kyV7ScsGjA4TrVTtH4nBy5kvvGN75R2dyquk945URvtrXo5gmfjpyl/Gy8yYTxXqnihFdWlm+88cY454dkhPjjVh5sPMaFCR0uz+GgY55UuV0IX7PtA4kKlQNijQ6krMBwAiChoRPm71BVparq+KNjZdf+8oqXduG98r5J5Ejoyr34aBfQxiQwdMa0LR000w+4Wm48DzB3r+ptMupI+Pg4MBI8hrGJO4ZvGc7lRuywbQttSBtzQcdFCOc1NhjmRrwSazvttFP8mf/8z//MOuGjHYgdjs/y2CWmeJwb93mMGCO++G/z8QvilFs53YDncOMY5sYxTNxSLSyH1Hut7oSP+aRccPSq/2CuW+On7nRbFfFXDuNWmb/0em5pJQkfK3/aXT7fLsqtlPbHS8LH8ARX+6mrTZsReAwRjeWEj46AkxlznugIwIFVnvDLEz0HGokKCweoojD3hKoJ1U0ObIY8qMpQBWRbDTpgOh86XjocnlN2OOXv4MRAh0zn0UtVxh+dLvHGnDNWmZKccVIn2aMN20HbMdTGCnQ6m1NOOSVuM0LbV/kpG3UkfKDtmAPE/qFsfdHqPDI6H2Ka4515V7wmckz4OLY4D3HMNR5bvT5+SQIZEmZVdK+rgHUnfOxDSgWuV/1HTglflflLFglfWRXpJTp5rgLHQ8LHyepnP/tZ+OQnPxmOOuqo4tHuGOsVPtqGTwphBSQnf+ZbML+HIUQ6V+KwsdNoxDAHFRh2imfYkbl6nPypqpR4fWKtrC7QeZBUMvGZ/daYp8pzOEHkskqNxIwKKO+x2/PFqMJwvPY63ppV2eESHyS2VJqZEsCQOFWDdufI8jdg/h4faceqadqLifZVVZUb9Sr+OHaYc0db1XX8kgBut9122e5SwHvnU0fYHLlX/UcOCR8XulxkVZm/jOmEjzdBhswbqQKleSaAt1t16ESdCR8nKeYAURFptULQKv5mXAmP1Tl8DH0xsZarJTrD8gqfzpIrNk74ZXWAigH3eYzvlfOAyse4EVO0c3nFX1YEKO/zfU4EVPOYBM4cKzqaz3zmM/E1WJDQqxNFVfHH+2XfQj4ijLbsNoaKGZ7kb8FqtapU3eESV+xnSFsSi8QHFRZihqoww9pUqsrkjXikbajkkdzxc8Qxr0Oix2RvkhJepw69ij/OPbzPlOOXSh2PodPjl9ehot2r9q0z4WO6ACuce9l/9Hp/yCrOf8QHFUv62yoQa1Tre5lc9jThy1mdCR/oCDhp9QpXab0c1ujVCY+LC1aRlkNeDDtSHSjn59AZcFLixM9/Oah5jO9xAmS+HlUsOg8O9nJCeHnQ81wOSG7la/E7mZvG1S33OXBJkKgw9EpV8Vde5dIJUhGgnbqJvwNba7CKlSkKtGkV6upwiTcSOVYzMsG9TGRGQhJIkkfFmEpoL1fPt6pX8cdxRoLLcYdywU9zlaU8dsvjl+8Rm7QVxzrnRqYOkNzwmjy/xPHZGGd8nzhn0QzxyPdIwHtZoa8z4aPNGCFieLsXaF8uSHo5raXu/nesMuHrkAGXppcnPE5oTCfgxMNE+KqSCDoOrm65aqaT6qUq44/KFO+LoQaSYW5Uf0mOaV/eKx0tnTMdM+0O/g5UU0iC6VDpgOnIWdnLkB0JNSul+SgoXodKV1Xq7HAbkYjQ8ZJskPiVF3GNyQsXImWb9otexh9xQ7xw3BJTVR2//C34vbR9r0eJ+iX+xir7386Y8HXIgEvjCS9NlfFHR0iCRmJCxYQEjsSkrJzQQXMbCZ12eWOYrexU6dBJbEggebwqxl8az39pjL80xl9nTPg6ZMCl8YSXpu74K5M8Er7mW6Ny+Iz/MuxWfs2tTsZfGs9/aYy/NMZfZ/prnEDSmFAmcVTlGit1bBraeOMxhriZD8pzy4RPklQtEz5JkqTMmfBJkiRlzoRPkiQpcyZ8kiRJmTPhkyRJypwJnyRJUuZM+CRJkjJnwidJkpQ5Ez5JkqTMmfBJkiRlzoRPkiQpcyZ8kiRJmTPhkyRJypwJnyRJUuZM+CRJkjJnwidJkpQ5Ez5JkqTMmfBJkiRlzoRPkiQpcxNmzJixprivNgy0W3FPnVi6dGlxT50w/tIYf2mMvzTGXxrjrzNW+CRJkjJnwidJkpQ5Ez5JkqTMmfBJkiRlzoRPkiQpcyZ8kiRJmTPhkyRJypwJnyRJUuZM+CRJkjJnwidJkpQ5Ez5JkqTMmfBJkiRlzoRPkiQpcyZ8kiRJmTPhkyRJypwJnyRJUuZM+CRJkjJnwidJkpQ5Ez5JkqTMmfBJkiRlzoRPkiQpcyZ8kiRJmeu7hO+hhx4Kt956a/j73/8e7rrrruJRter+++8PV199dbj88svDjTfeGNasWVN8R60w/tIYf2mMvzTGXxrjL02/x9+EGTNm9M2/6Prrrw8rV64MDz74YPFICI997GPDs5/97PCoRz2qeKQ/DLRbca8/EFi/+MUvwvnnnx/uueee+NiECRPC5ptvHt7ylreEJz/5yfGxfrF06dLiXv8w/jpn/KUz/jpn/KUz/jo3VuKvbyp81113XbjqqqvC6173urBo0aJw6aWXhq9//evhkY98ZPjNb34T7rvvvuKZGspFF10Uzj333PDa1752bft97Wtfi1ccJ510Urj99tuLZ2ooxl8a4y+N8ZfG+Etj/KUZK/HXFxW+Bx54IDbYW9/61nD66aeHiRMfzkP/+Mc/hpe97GXxSmPbbbctHq1fP11hUHo/+uijw5vf/OZh22+bbbaJVxr9op+ucI2/NMZfGuMvjfGXxvhLM5bi7+F/WY1uueWWOHdg7ty56zQWKCfvueee4aabbuq78fB+8ac//SketCO135VXXhlWr15dPKpGxl8a4y+N8ZfG+Etj/KUZS/G37r+uJjQWDbXFFlsUj6xryy23jAFpwA3t7rvvHrX97r333tiGWp/xl8b4S2P8pTH+0hh/acZS/PVFwrfxxhvH7Pe3v/1t8ci6fv3rX4cNN9wwNqrW9/jHP37U9ttkk03CIx7xiOIRNTL+0hh/aYy/NMZfGuMvzViKv774C7ICiBUtn/zkJ+Mkx0Y//elPww9+8IPw6Ec/2iuMYbACaLT2e8pTnlI8ombGXxrjL43xl8b4S2P8pRlL8Vd7wkepk8yYSaH77bffelnw1KlTw+677x5uvvnmsGLFiuJRlf7xj3+EU045ZdT2YwXWwoULi0dVMv7SGH9pjL80xl8a4y/NWIu/SVtuueW84n7luGL43e9+F0vKF1xwQdh1111jptyIhnznO98Zl4XTYCwTf8xjHlN8tz6My9eNMvKpp54a5wa00n6nnXZaeMITnhA222yz4rv1ueaaa4p79TH+0hh/aYy/NMZfGuMvzViMv1orfKz8YX+ar371q+H5z39+8ej6aMSjjjoq7LjjjnFjSBpaIfzhD38Iq1ataqv9fvKTn/TF5NF+YPylMf7SGH9pjL80xl+asRh/tSZ8fPTIVlttFfbYY4/ikeFNmjQpHHLIIbEEfdtttxWPjm9cnbXbfrTdtddeWzw6vhl/aYy/NMZfGuMvjfGXZizGX60J3x133BFe/epXx8ZoRbnZ4p133hn/O97dcMMNHbUfPyfjL5Xxl8b4S2P8pTH+0ozF+Ks14aO0yZh2q8qlzY2f9TdeMf+CeQGdtB8/J+MvhfGXzvjrnPGXzvjr3FiNv1oTPvb2YQy8VZSgCTZ+brxjXgBL5TtpP35Oxl8K4y+d8dc54y+d8de5sRp/tSZ8rGBhEiOfRdeKs88+O/73cY97XPzveMfO3p203+TJk+N/xzvjL43xl8b4S2P8pTH+0ozF+Kt1WxauFK6++upY5pw5c2bx6NCY7Pie97wnrhB65jOfWTxan35YFs7y+OXLl7fVfvzM9OnT4xVKnfphWwLjL43xl8b4S2P8pTH+0ozF+Ks14dtoo43iqp8f//jHcbXLC17wguI762KSKHvZ/OpXvwrbbbdd/Lm69UPAcYV26623hjPPPLOl9vvNb34T3vGOd/TFFVo/nPCMvzTGXxrjL43xl8b4SzMW46/2RRtkuoxrs0t1WfJsxPf23nvvcN5558VMuvmjS8YzJn/y+Yatth8Haqvl5/HA+Etj/KUx/tIYf2mMvzRjMf5qS/i4suCK4e9//3s46KCD4se2vOlNbyq++zCCjAz6Rz/6Udzc8LLLLoubP453fKTLCSecEPcCarX9nv3sZ8fdvpcsWRJXGY1nxl8a4y+N8ZfG+Etj/KUZq/FXy5AuVwmUN/lIlx/+8IfhwAMPHLHMSRbNZ9K9//3vj5/pt3jx4jiXoJ0l0d1WZ0mZ/ZNOOumkGDTtth+7q3/ve9+LV3eUoetS55CG8ZfG+Etj/KUx/tIYf2nGcvxVnvDRSGTFlJIXLVoUP26kVWxwuNtuu8VGI+jq/Fy/ugKOA+073/lOLA2ntB9XHU984hPDU5/61OK71arrhGf8pTH+0hh/aYy/NMZfmrEef5UP6bJvDStWjj322LD99tsXj7aOQD366KPjDtdXXXXVuJtTcNFFF4U///nPye33qle9Kn4YNhNKxxPjL43xl8b4S2P8pTH+0oz1+Ks04XvggQdiY73lLW8J73rXu4pH28e4+De+8Y343zpL41W7++67wwUXXNC19uNqb+nSpcWj+TP+0hh/aYy/NMZfGuMvTQ7xV2nCd/3118c3+dnPfrZ4pHPbbLNNXBnz17/+ddxcZVxyySXxoO1m+zGXgzkJ44Hxl8b4S2P8pTH+0hh/aXKIv8oSPgKN4Hj9618f9/LpBlbHgNfNHXMHfv3rX3e9/XjdSy+9tHgkX8ZfGuMvjfGXxvhLY/ylySX+Kkv4yGJZCv7ud7+7eCTd1ltvHV7+8pfHSZC5u+GGG+Lci1603x/+8IfikXwZf2mMvzTGXxrjL43xlyaX+Kss4WPfGlap7LTTTsUj3fG6170uTnxkg8OcsfdRr9qPYOZkkDPjL43xl8b4S2P8pTH+0uQSf5UlfATFlClTwqabblo80h2veMUrYlm07h2se42g6FX7sSfQ3/72t+KRPBl/aYy/NMZfGuMvjfGXJpf4qyzhu+eee8K2225bfNU95Wvy+jnjM/t62X633HJL/G+ujL80xl8a4y+N8ZfG+EuTS/xVlvCxkmezzTYrvuqe8jVzXynEFVov2y/3KzTjL43xl8b4S2P8pTH+0uQSfxNmzJhRyYe6LVu2LGywwQZhk002KR7pnhtvvDHuvF3l7tsD7Vbc6z1WWH3hC1+I93vVfryfKt9T1fsPGX+dM/7SGX+dM/7SGX+dyyn+Kkv4/vSnP8Wx6l550pOeFG9VqTrg+BiXXl5FsWKoFyXr4VR9wjP+Omf8pTP+Omf8pTP+OpdT/FWW8OWmyoDLUdUnvNwYf2mMvzTGXxrjL43x15nK5vBJkiSpHiZ8kiRJmTPhkyRJypwJnyRJUuZM+CRJkjJnwidJkpQ5Ez5JkqTMmfBJkiRlzoRPkiQpcyZ8kiRJmTPhkyRJypwJnyRJUuZM+CRJkjJnwidJkpQ5Ez5JkqTMmfBJkiRlzoRPkiQpcyZ8kiRJmTPhkyRJypwJnyRJUuZM+CRJkjJnwidJkpQ5Ez5JkqTMTZg3b96a4r7asHTp0uKeOjFjxozinjph/KUx/tIYf2mMvzTGX2es8EmSJGXOhE+SJClzJnySJEmZM+GTJEnKnAmfJElS5kz4JEmSMmfCJ0mSlDkTPkmSpMyZ8EmSJGXOhE+SJClzJnySJEmZM+GTJEnKnAmfJElS5kz4JEmSMmfCJ0mSlDkTPkmSpMyZ8EmSJGXOhE+SJClzJnySJEmZM+GTJEnKnAmfJElS5kz4JEmSMmfCJ0mSlDkTPkmSpMyZ8EmSJGXOhE+SJClzJnySJEmZM+GTJEnKnAmfJElS5kz4JEmSMmfCJ0mSlDkTPkmSpMyZ8EmSJGXOhE+SJClzJnySJEmZM+GTJEnKnAmfJElS5kz4JEmSMmfCJ0mSlDkTPkmSpMyZ8EmSJGXOhE+SJClzJnySJEmZM+GTJEnKnAmfJElS5kz4JEmSMmfCJ0mSlDkTPkmSpMyZ8EmSJGXOhE+SJClzJnySJEmZM+GTJEnKnAmfJElS5kz4JEmSMmfCJ0mSlDkTPkmSpMyZ8EmSJGXOhE+SJClzJnySJEmZM+GTJEnKnAmfJElS5kz4JEmSMmfCJ0mSlDkTPkmSpMyZ8EmSJGXOhE+SJClzJnySJEmZM+GTJEnKnAmfJElS5kz4JEmSMmfCJ0mSlDkTPkmSpMyZ8EmSJGXOhE+SJClzJnySJEmZM+GTJEnKnAmfJElS5kz4JEmSMmfCJ0mSlLkJM2bMWFPcVxsG2q24p04sXbq0uKdOGH9pjL80xl8a4y+N8dcZK3ySJEmZM+GTJEnKnAmfJElS5kz4JEmSMmfCJ0mSlDkTPkmSpMyZ8EmSJGXOhE+SJClzJnySJEmZM+GTJEnKnAmfJElS5kz4JEmSMmfCJ0mSlDkTPkmSpMyZ8EmSJGXOhE+SJClzJnySJEmZM+GTJEnKnAmfJElS5kz4JEmSMmfCJ0mSlDkTPkmSpMyZ8EmSJGXOhE+SJClzJnySJEmZM+GTJEnKnAmfJElS5kz4JEmSMmfCJ0mSlDkTPkmSpMyZ8EmSJGXOhE+SJClzJnySJEmZM+GTJEnKnAmfJElS5kz4JEmSMmfCJ0mSlDkTPkmSpMyZ8EmSJGXOhE+SJClzJnySJEmZM+GTJEnKnAmfJElS5kz4JEmSMmfCJ0mSlDkTPkmSpMyZ8EmSJGXOhE+SJClzJnySJEmZM+GTJEnKnAmfJElS5kz4JEmSMmfCJ0mSlDkTPkmSpMyZ8EmSJGXOhE+SJClzJnySJEmZM+GTJEnKnAmfJElS5kz4JEmSMmfCJ0mSlDkTPkmSpMyZ8EmSJGXOhE+SJClzJnySJEmZM+GTJEnKnAmfJElS5kz4JEmSMmfCJ0mSlDkTPkmSpMyZ8EmSJGXOhE+SJClzJnySJEmZM+GTJEnKnAmfJElS5kz4JEmSMmfCJ0mSlDkTPkmSpMyZ8EmSJGVuwrx589YU99WGpUuXFvfUiRkzZhT31AnjL43xl8b4S2P8pTH+OmOFT5IkKXMmfJIkSZkz4ZMkScqcCZ8kSVLmTPgkSZIyZ8InSZKUORM+SZKkzJnwSZIkZc6ET5IkKXMmfJIkSZkz4ZMkScqcCZ8kSVLmTPgkSZIyZ8InSZKUORM+SZKkzJnwSZIkZc6ET5IkKXMmfJIkSZkz4ZMkScqcCZ8kSVLmTPgkSZIyZ8InSZKUORM+SZKkzJnwSZIkZc6ET5IkKXMmfJIkSZkz4ZMkScqcCZ8kSVLmTPgkSZIyZ8InSZKUORM+SZKkzJnwSZIkZc6ET5IkKXMmfJIkSZkz4ZMkScqcCZ8kSVLmTPgkSZIyZ8InSZKUORM+SZKkzJnwSZIkZc6ET5IkKXMmfJIkSZkz4ZMkScqcCZ8kSVLmTPgkSZIyZ8InSZKUORM+SZKkzJnwSZIkZc6ET5IkKXMmfJIkSZkz4ZMkScqcCZ8kSVLmTPgkSZIyZ8InSZKUORM+SZKkzJnwSZIkZc6ET5IkKXMmfJIkSZkz4ZMkScqcCZ8kSVLmTPgkSZIyZ8InSZKUORM+SZKkzJnwSZIkZc6ET5IkKXMmfJIkSZkz4ZMkScqcCZ8kSVLmTPgkSZIyZ8InSZKUORM+SZKkzJnwSZIkZc6ET5IkKXMmfJIkSZkz4ZMkScqcCZ8kSVLmTPgkSZIyZ8InSZKUORM+SZKkzE2YMWPGmuK+2jDQbsU9dWLp0qXFPXXC+Etj/KUx/tIYf2mMv85Y4ZMkScqcCZ8kSVLmTPgkSZIyZ8InSZKUORM+SZKkzJnwSZIkZc6ET5IkKXMmfJIkSZkz4ZMkScqcCZ8kSVLmTPgkSZIyZ8InSZKUORM+SZKkzJnwSZIkZc6ET5IkKXMmfJIkSZkz4ZMkScqcCZ8kSVLmTPgkSZIyZ8InSZKUORM+SZKkzJnwSZIkZc6ET5IkKXMmfJIkSZkz4ZMkScqcCZ8kSVLmTPgkSZIyZ8InSZKUORM+SZKkzJnwSZIkZc6ET5IkKXMmfJIkSZkz4ZMkScqcCZ8kSVLmTPgkSZIyZ8InSZKUORM+SZKkzJnwSZIkZc6ET5IkKXMmfJIkSZkz4ZMkScqcCZ8kSVLmTPgkSZIyZ8InSZKUORM+SZKkzJnwSZIkZc6ET5IkKXMmfJIkSZkz4ZMkScqcCZ8kSVLmTPgkSZIyZ8InSZKUORM+SZKkzJnwSZIkZc6ET5IkKXMmfJIkSZkz4ZMkScqcCZ8kSVLmTPgkSZIyZ8InSZKUORM+SZKkzJnwSZIkZc6ET5IkKXMmfJIkSZkz4ZMkScqcCZ8kSVLmTPgkSZIyZ8InSZKUORM+SZKkzJnwSZIkZc6ET5IkKXMmfJIkSZkz4ZMkScqcCZ8kSVLmTPgkSZIyZ8InSZKUORM+SZKkzJnwSZIkZc6ET5IkKXMT5s2bt6a4rzYsXbq0uKdOzJgxo7inThh/aYy/NMZfGuMvjfHXGSt8kiRJmTPhkyRJypwJnyRJUuZM+CRJkjJnwidJkpQ5Ez5JkqTMmfBJkiRlzoRPkiQpcyZ8kiRJmTPhkyRJypwJnyRJUuZM+CRJkjJnwidJkpQ5Ez5JkqTMmfBJkiRlzoRPkiQpcyZ8kiRJmTPhkyRJypwJnyRJUuZM+CRJkjJnwidJkpQ5Ez5JkqTMmfBJkiRlrq8SvtWrV4drrrkmXHjhheGSSy4Jf/vb34rvqBVr1qwJ//jHP8KqVavC9ddfH+66667iO2qF8ZfG+Etj/KUx/tIYf2nGQvxNmDdv3prifq1uvvnm8L3vfS/85S9/KR4Z+MdNmBC222678KY3vSlstNFGxaP9YenSpcW9/nDPPfeEyy+/PNxxxx3FI4M23XTTsO2224ZJkyYVj/SHGTNmFPf6g/GXxvhLY/ylMf7SGH9pxkr89UWFj8Y65ZRT1gk2kDFfdtllMRC5r6E9+OCD4be//e16wQau0ghEDc/4S2P8pTH+0hh/aYy/NGMp/voi4bv44otjKXQ4V155ZVi5cmXxlZpRQr733nuLr9bH1dutt95afKVmxl8a4y+N8ZfG+Etj/KUZS/HXFwnfihUrinvDa+U549Utt9xS3BteK88Zr4y/NMZfGuMvjfGXxvhLM5biry8Svvvuu6+4N7xWnjNeUVIeTSvPGa+MvzTGXxrjL43xl8b4SzOW4q8vEr4nP/nJxb3htfKc8epRj3pUcW94rTxnvDL+0hh/aYy/NMZfGuMvzViKv9oTPiaDesCm2XDDDYt7w9tggw2Ke2pk/KUz/jpn/KUz/jpn/KUbS/FXe8K3ZMmS8Mtf/rL4ang/+MEPwh//+MfiK5Wuvvrq9VZXDeWKK64IN910U/GVSsZfGuMvjfGXxvhLY/ylGWvxV2vCx0TQZcuWFV+N7KGHHgpnnXXWkEufxysmgl577bXFVyPjSo4D9v777y8ekfGXxvhLY/ylMf7SGH9pxmL81Zbw0QDnn39+/G+rWPq8fPny4iu1u1SeiaOtBmjujL90xl/njL90xl/njL90YzH+akv42PenlVJoMzYxbCdIc8XBd+eddxZftY6ysu1n/KUy/tIYf2mMvzTGX5qxGn+1JXzsQN3JG7/99tvjzuDjHZ/T10n7sby+X5aI18n4S2P8pTH+0hh/aYy/NGM1/mpL+Dp90zQy8wnGu07bgPbjQ7LHO+MvjfGXxvhLY/ylMf7SjNX4qy3h22STTYp77WF588Ybb1x8NX51+mHWEydOdIuCAcZfGuMvjfGXxvhLY/ylGavxV1vC97SnPa2jwNl88809YAc85jGPCY94xCOKr1r32Mc+NgbdeGf8pTH+0hh/aYy/NMZfmrEaf7X9ZoLmRS96UfFV67bffvvi3vg2adKksNlmmxVfte4Zz3hGcW98M/7SGH9pjL80xl8a4y/NWI2/Wi91XvOa14THP/7xxVej22abbcJznvOc4ittueWWbV2lPelJTwpPecpTiq9k/KUx/tIYf2mMvzTGX5qxGH+1Jnx//vOf25o8yqaPrC7SIJbWtzMBlE0fO1lKnivjL43xl8b4S2P8pTH+0ozF+Js0Y8aMecX9yrBS5ac//Wk455xz2tp5msa69NJLw6abblr7hzlfc801xb168PuvuuqqtlYL0dY33nhjnH9Q92cjcnVUF+MvnfHXOeMvnfHXOeMv3ViNv1oqfD//+c/D0qVLY+C1i0Y744wz4mfYjVdcmRFwnbQfAfr73/8+3HrrrcUj44/xl8b4S2P8pTH+0hh/acZy/FWe8PH5fXykSwrK0N/97nfDbbfdVjwyfvD5fQRbCsrQ7JjOJpDjjfGXxvhLY/ylMf7SGH9pxnr8VZrw8QbPPvvstsa9h3P33XeHc889t6Mse6zi6uCKK67oynt+4IEHwpVXXll8NT4Yf2mMvzTGXxrjL43xlyaH+Ks04bvooou6elVA46dm22PJqlWrunpVcPPNN8eJp+OF8ZfG+Etj/KUx/tIYf2lyiL/KEj4y2osvvrj4qnuWLVtW3MsbV2UEXLdde+21xb28GX9pjL80xl8a4y+N8Zcml/irLOHjaoAycLcxeXQ8zCW46aab4kHbbUwe7eZVS78y/tIYf2mMvzTGXxrjL00u8VdpwtcLZN7jYS4GAdcLzEegtJw74y+N8ZfG+Etj/KUx/tLkEn+VJHy8KZYy90ovX7sf0H69vIrKfR6L8ZfG+Etj/KUx/tIYf2lyir9KEr677ror7tLdKzfccENxL0+UkntZ9q179+9eM/7SGH9pjL80xl8a4y9NTvFXScJHBkuW3CsEM0umc3XvvfcW93qDYKY0nyvjL43xl8b4S2P8pTH+0uQUf5VV+HqJ3b+55aoXk0UbcbDmfMIz/tIYf2mMvzTGXxrjL01O8VdJwtfOBzR3qorfUZcqgiHnE57xl8b4S2P8pTH+0hh/aXKKvwnz5s3rXa23wAqXXq0SKm2//fZhww03LL7qPT6LsCosp+/VKqHSM57xjDBp0qTiq96bMWNGca/3jL80xl8a4y+N8ZfG+EuTU/xVkvDlqMqAy1GVJ7wcGX9pjL80xl8a4y+N8deZSoZ0JUmSVB8TPkmSpMyZ8EmSJGXOhE+SJClzJnySJEmZM+GTJEnKnAmfJElS5kz4JEmSMmfCJ0mSlDkTPkmSpMyZ8EmSJGXOhE+SJClzJnySJEmZM+GTJEnKnAmfJElS5kz4JEmSMmfCJ0mSlDkTPkmSpMyZ8EmSJGXOhE+SJClzJnySJEmZM+GTJEnK3IQZM2asKe6rDQPtVtxTJ5YuXVrcUyeMvzTGXxrjL43xl8b464wVPkmSpMyZ8EmSJGXOhE+SJClzJnySJEmZM+GTJEnKnAmfJElS5kz4JEmSMmfCJ0mSlDkTPkmSpMyZ8EmSJGXOhE+SJClzJnySJEmZM+GTJEnKnAmfJElS5kz4JEmSMmfCJ0mSlDkTPkmSpMyZ8EmSJGXOhE+SJClzJnySJEmZM+GTJEnKnAlfZh588MHintQba9asKe6t64EHHgjnnntu+NKXvhSOOeaY8Mc//rH4zvqGew2FcPnll4dbbrml+EqqzurVq4t7ytGkLbfccl5xX20YaLfiXrV+/etfh6VLl4ZHP/rR4QlPeELxaAgPPfRQOOecc8L3vve98JjHPCY87WlPK77Tn6655priXv8gCbn++uvD1VdfHf7617/Gkx9tOWHChOIZ/aOO+Pvzn/8cvvvd78b4u/HGG+O/YYMNNii+G8KPfvSj8Itf/CLcd9994c477wx/+MMfwjbbbBM22WST4hkh/OlPf4oxymvcdNNN4ZnPfGZ4xCMeUXy3Ov0YfyAGabdHPvKR4fGPf3zxaP+p6/w3Eo7XSy65JCxatCj89re/jRe/nAf78fitK/5uuOGG+Ls33HDDGGMl2u6qq66KFxt8r/GY7Uf9GH9jgQlfh+oKODrL6667Llx22WXh6U9/enjSk54UH//f//3fmAxy4P7tb38Lr3jFK/ryRFfqxw6XEx5Jzb333htvN998c2zPJz7xicUz+kfV8XfbbbeFE044Idx6663h/vvvjwkfCdvzn//8+H0SlbPPPjt+r8RjJMxTpkyJX1O1+p//+Z/4WjyPzucf//hHeO5znxu/X6V+iz/alc6WNiFhvueee+JxTPs8+clP7rtjuR87XC54L7jgghhftNuVV14Zq87Petazimf0j7rij4uJ22+/PcYWSd2jHvWo+PgVV1wRY49j9u677w6bb755fLxfmfB1ppIhXQ4+Tma///3v197oWBuVJ7zG53C79tpri2cMotNofh4J0HhBAgIqemeeeWZMSria5VbihEeHodaR4HHCa7Zq1ap1kpjxispcczuUHSpISDbeeON4v1FjFYGEunnKAcO+ZUyPZ5MmTQobbbRRrK6UX3OfWz9fuPUL+phf/vKXxVcPu/jii8Ndd91VfCUSuvK/HHskd1y8MaJR4lxYHtcaTM7POOOMdW4//elPi+8OWrly5XrP4fazn/2seMYgzqPNz1m2bFnx3d6rpMJHp0lnSnCVNw7CLbbYonjG4HMIusbnlM+bPHly8awQk7vm55HcVH1FUtcVBp1mOb+HzpMhjOa5UhzMnPx4nLYiOXzc4x4XO5F+0W8VFoYgG096jTbddNPYGfeTXsRfOWT7k5/8JB6v/I5yyJYOlYurRiR4r371q9cmJFQLqCCUqIzutttua1+DuG38PviZadOmrX0N4rscNqaCyL+hF0O+/RZ/xBdxxo2L3Gc84xlh22237cvqMuo6/w2HY/c3v/lN8dXDOBc+73nP67shyrrij2OwLAZwocUUFo6zZhz/PM55kTbkWO+nC48q44+Lhl/96lfh73//+9obSfKrXvWq4hkhXHjhhTH+Gp/DjTbcYYcd1rYdyR3FmcbnULThOVWobdEGSUhjla5MYpqR1LTyvPGi1UDnKu0pT3lKOPbYY8PMmTNjR8vcFiqpWh+Jx8SJ6x8OJMmNVapc3XHHHeHb3/52vPDiJP+73/0uVpBLzMUjCSlxAps+ffo6bUbHuueee8b7JC7777//Om33nOc8J2y22WbFV4Ov8ZrXvGbtyZCT42mnnRY7G/4NnGR/+MMfxu9JI2HYe6gLWi42+jVprkOr80LpdxkK5/j753/+5/hzJKn0KwpxtOP0009fe1uxYkXxnXWRXFPFK5/H/PA61ZbwcXXRmOUONwTZ/LzxHHAchI1Dt6PhJEgic8ABB8S5fyeddFKcu0H1hIRbD2PorLHiXOpVhanfMNTA3LFGnJzKx+hM99lnn3jxACrqVOaGQ+W9eYiXzvetb31rvE8H8r73vS9sv/328WswRNw85Mtj4yVWee90qlRUSH69OGsdc0WpNjcjXoeaajAe0ZcON4oxlMb+gzniFAxYZEWMjvdpGJyTmFpW3kYqWDU+r+5juraET+1bvHhxTHpbxQH67Gc/O54ImVDPFRtVHA5grjao6mgQByKl9Wa0N3MiczdUFZMErbFqQlJMlQ4MBQ3VLjwOKnRMDm9WDuk+9rGPXbuYo0Tn0ozOeqjKa27oGBgSKuc2036XXnppWx30eMbFCRcHzehkm+eLj1e0ERdirRqq/1iwYEH43Oc+F6deNF8gqv9NmDFjRs83xGL+z4477rh26KbbOFFWXYUZaLfiXjVYlUuVjqt/hs3mzZsXPvKRj8SDslWvf/3r4ypJhtWWL18e3vOe94Tdd989dr5Vo8rYD7hS4+Q1UsdK3LK9Aye8fpkH2e34ox1OPvnkdRZJzZo1a72qCcOtTBPAa1/72jis2+iUU06J1ULsscce66zApSrwX//1X/F8QIXwAx/4QPGdQQyTHH/88Wsvamj3N73pTeElL3lJ/Lqb+iX+SiQrf/nLX4qvHka8vexlL+u7aQVVn/+GQ8wsXLgw9gGcG4dCHNGGu+yyy9r5pHWrOv4Y2SH5Rbf6j7e//e3xoq2O+c1Vxt///d//xcpmr/IX5to3zgfspUoWbbBggEmJbCHSixsriqoulVY5aZQrKa6s+C8VFk5wHHTMaWxnhQ/zDEga3/CGN4QXvehF8ert3/7t3+Lcq6oTmX6YNE97MkTeyrxQqqEkKsPNFapat+OPKhpxwLHKsUQlgCHu5iocVTvm1oEK38tf/vK1J0ISuvPOO2/tCj/2idxqq63ifVBhYJER2EeSTrgRSSf7+DG944UvfGHYdddd11YUu60f4q9Ee3HSHyph4THat9/moVV5/hsOx+Q3v/nNYedPNSKZZiUlC2HKldB1qjL+OK4oGPDfbvYfbMnEBuvMFa+6Cl9l/DHywBzmoXKPbtw4F1Z1IVJJhQ/MSWE4h6DrJiaST506tWfZ93CqvMJYsmTJ2uXdX/3qV8OHPvSh2EnQQQ81jDEaOuGLLrooHqhc6VGuf/Ob31x8txp1V1hoP/YtbGeIA8wV4mRX97y+XsYfWw6cf/75MbFl4UXjQgsqgCeeeGLxVQizZ89ee/JlSJz4LBMX4ox5eiVW39LxgEUd//RP/xTvl9i4mbjkWP7Yxz4W27pXqog/2oGLCaorDNGSEHNi531xoichpqMkwR5pbi5J+Itf/OI47Ev1s0zIOZfyN+L1OJZJCqs6D9Zd4eP9U21qZ4oLqNQzF7XueX1Vnv+40Cor973oP4477riYSFep6vjjguz73/9+V4exOVa5YH7d615XWcJcWVpOZYSTFhO9OUhJAFNuRxxxRMy6t95668qTvSpxcmfJd6mc53TYYYd1dLCCE8B+++0XO6RPfvKTMYi5+h1POICHS/Y+85nPhEMPPbT4al103J22+1jBht4gofjBD36wzgTt5gs2kuYSVZTGKhXDv+XPUrVjc9dS8+uw3VJZ/WOKQS+TvSow1MgcPLaUOuqoo2IySyfPkDdD2SR+vN9W5ujRhlSE6GRpNxIWht9Jyn/84x+Hz3/+87HaQsWm3QuYsYgYO+uss4ZN9kY6fonJ8bTym0WOrLwv9aL/4EKD0Y+cMRr2/ve/P05j6Ub+QoxSKWWYvMrqaKV1WE7inNhJ1FJvX/jCF9Z2TDmjute4cpEl8tttt108yaegqscwMfMvmITLXI7GzjpnVFyGWqBRYu5auRp1KKP9/FhHRa+8iCKJa7zgaEz+QNW+XDnfPAeNJK8cLmebl3KoF42vw+ONiWW/fyzgaEjKWLzCwig+/eEtb3lLTACJGYbI586dG/fJ/PnPfx7PZeWcx+EwdEmVjwoDSTPTMDgHcDHIPqU77bRTOPXUU+O8KhLJ3BdjkdiOlKyMdvxSZc79oq1EctZ4rPWq/xgthnPAeZFzWnMu0snty1/+cpzSUnWxqtqB9wEkFZyo6AhSbo2dR664MuPk1ogTfDn5NtWnPvWpWN174xvfGMvz4+GgxVCr9hgaox3e+c53xuG2pz71qfE+GwcPdQWW88o/NqltXMhDZYqrUjRX5khkyhgdatFBWfVr3hS38XWYrtBYrRnrF3Ict9/61rfiaMaBBx4YF6iQhBBLL3jBC+L7++AHPxjn7rDdxXe+8511hs0bEZcMmzG3kY9L/PSnPx2H1Kg4MMeRhQjMtSzjlEoif79cz4/EEh+f1qzd43eo18gN822bq6C96j+ISfrl3I31/KXyhE+tIbD4xAP+2ysME9ExcUJkPhWdSu4YkuWk14yOmCoTVRnmo7BogPsM/zBHtBkn05yHzxqrbJycuKInFpsTPpDM8fhQw5MkfOxK35wMlq/DEFvzxPGxXOEjAabixqo7hr1Y0cxjjUiemezOMOzBBx8cq1Ece8wNbcQ8M+Y9kuRRwSMuP/vZz673cZO0JRPxSTCpLLLfZq7bufC+qLA3a/f4pZ1yrtKDaTpV9h9DXfCpv5jw9SlK8dx67etf/3r8L1toUJkYKhnKyXB76jEXjY6BVWzcJwnhPleuww3/DLXPXC6aky4qmiQlQyV8xA1Du0NNaKZjba7ugWEmXotOuvE1GeIYyxU+krl3v/vdcREGnxoyEqZqMLRDosZ9pm+QqICKFXtmsi0Nw3DMH6KyMBISoY9//ONxCwlit5edfV2G+9z0do9f2ibnz2AnVkaLl25o7D+4AG6+uFF/MeHrQ5yMqlrFxRYbdNZ88gErn3Kf2zLSKisS7HIxB4kv90faPmGk1xrrhkq6SEgYjmhGvA63nxfVPRYvNCPJY84ZFb5GDCUPtQHzWMEcHyp3DBm2mnDRPhx7VJ8Z4mVIkuEyPpWECuB///d/F88cHUk5v5eV083zLXMw0ibo7R6/OW+oPtL77qbG/oNK9VDnB/UPE74+xMGacvXZzh5FdA7lqjVWDLWyp1XuTjjhhDgsNpqcV4dT4Wt+fyS4LDQYynCdJ1f8Qw19U9Fi+5dmQ/3esYbqXLtzdKigvu1tb4tz+RiKZGEHK3rZRqMd5QbNuV6MDDUfr1mrx28rrzUWUdlLSWZJ3lrV3H+Y8PU3E74+xPYLpXYOPvCpBEN9puRImCsIqgzMD2q1MjEWtVI9Yn8vJtKPpt8+/aCbWFAw1CewdGvIhupT4+rz0lhfsMGmvnxyCwss2sXK3f/4j/+IWz+QJLMXYbvodMFKVBLP3LSyAXWrx2+/bWbdLY3bsLTbf3DBNdRnio+ksf/IfXuWsc6Er88wrEOHAT6GionFzRvUDoWqCCV15vwMNal5JHx0DENsTHamk8h5qIPNbrtRQaI60O7JdCyhjepYPFHH7+wmhmOZu8e8vNe85jXFo6370pe+FJNhqnvlyuhWsXUL+6JdfPHF2S7a6NbHG7J9TfOnyOSAC7KyytZu/8HIEH1Au/O4G/sPLqjLbZrUf0z4+gwrncq5N0w6JrFgC4aRsJqPSbN0MBy47Q7L0rFwVchJkD2acu0swL5Rw22B0Q4qUbRXzrrRTu0gdqv+nd1Gh8d+eWxxxObIfBJQOxiOo/Nsd8I9sUiSSML8iU98ou3fO1ZQdW5ezdwJ9kAby3NFh8MejOUITav9B58axGdel1OB2o295v6DooX6U2UfrVYiGWksOXeKjpvP560L5eteoH1Y6g46P7Z4YFf54Q4i9vhi7k85PMHB+pWvfKXtCdvs2M+eXgcccECc/NzusHC7qvxooWYMJbKKkpMjV6Wtfjg/n4xAR04lhW0g6hwy61X8NWJYkG1BmvG+WRHJJ+dwgqdSQhxS3WIPOIY1iT+u9BniYeEGUwWIbRYoMNF7qC0x6IBZZVrF3Kpexh/z90ja2BOPfdD42EImto+ENqXDZCidtmJo98gjj4yxOtoUCza055xRruhlMUyvq89VxN9wmJ9IMs3FcSfHL0OW733ve2u9YOtV/FHdKxdJtdJ/kECTGJbTU1h0RDu1O62nsf9gcVe7w8Ltqiv+yo9/TEW7f/SjHy2+qo4JX4d6FXB0hCRso6FTJCmbPn36OolH4+eVtoP9wjhY2YGdISk+HaCX6kz4QIdM0sd8HxLmVvBB7QcddFBchVlnsocqTngkbKwQJTFmY242WGUjW2KOz8IFnS9br7DIiOSG5zKsRHxSeSbxKOcF8fGKPE7bs/nr4sWL4/5+LAQhSeJ45nMlq9Dr+GMOHokvCzBIgvkoq6997WuxbUjQOHYZ9uXCgY+HpI3oBBqTXdqf8wELOmgvEmU+To1P2yg7ZJId4pLEh9hkIQx/q16rM+EDcUdFk21t2jl+2cSabXPqrs73Kv5I2BjSHw3VdI5JqnrcLxFn7U4JQmP/wd+EeOwlE77O1JLw0UGk4mSaY8LHiZyOoXmH9EYcoHS+L33pS4tHBnFlx3BSu1dnOPzww+PJkL2/6JwaP/S+F+pO+Kg8kfBRUWl1oQAXKnTCDClxwNapqhMeVRSGbJgEzzFH8sEVPEkaCQjzTYdahduMRIYKIMkyCxqYfsDmxLQ/22e84x3viB13VYl0FfFHrFBxoVrH8cpcJ1bgkzRTzSTJ5b2TwJEw087MnyIhpq2Zb0qVhr3k+KB7kmyObbZOKodv6WSpoPL5vEzF4GeqUHfCx6bCVDWpTLVz/JJwz549O1ak69Sr+CM+iLPR5uGRkDXPlyWORqtED6ex//jwhz+8dj/JXqkz4WsloR4NF4HjIuGjMkdQNF7JdoLtCmj8uq7UehlwdKq00XBbKwxVCWEYlp8ZauVjK5jYSzWHFVd77bVX+NCHPlR8pzfqTvjYr6zdycklkr1Wh5F6pcoTHjHF7dxzzx1yT71OkfQwDEQCzeszl6gqVcUfQ9scz7Qd86TYd5CqH5VNPqO4lWS5ROJHe7397W+PC7RIjtm4+v/9v/8XP0qMc2tV6kz4SGr4pBISlE5Mnjw5fgpKnXoZf1zMMsozXF9Astv86SNMBeLzrtudClRq7D+YWvDyl7+8+E5v1BV/XOCyGCY1f2HDav5OVc8jrTThI6joMMhuU1G6ZuiCDyKuQ68Djk9x4EqeK1IqouXnlTL8Q0LWWAkh2eODrHlup/bee+94xUzVa8cddwyHHHJI8Z3eqDPhI5Hm6pYhx06QKFKNqXNYqOoT3jnnnBM7Cub7dAsd9xlnnBG3Ial6O5Yq44/3ufPOO8fjlI9IKy/kONkzB5KVpyQhzMPlMToTqn+sliepoSpI5aVxyyQm4vN5vAyLM4xetToTPjpK2qLT45ckm4SHofW69Dr+iDGmA1AtJj7KYVpijGpxY8JCv0yCyHM71dh/bL/99rEP6aU64o/jl/fYjbghf+FC9w1veEPxSDUqS/gIKoZv6Dga5wykOProo+MGm+1sNNwtVQYcJ38OSDoDEr7Gg5UgZLiN56RgV3+Gg+lc+B1s79DL4bU6Ez6GxkiQO41DroJ33333Wj9areoTHp0Hw/zMOesmtiEZrpLdS1UnfAyBEze0H8PXVOgZ9mLoFlRjaAeGgel4qdaR0PB94pTXoNPm381Gt3wiBx05C2b4KLWq1Znw0Y4MH6Ycv2xsXWVFtFmV8Uc8MUWICjrTKhrbLbWyV2rsP7iAYY5qt/r5oVQdfyz2YUrAmWee2bX3xVxHKqJU66tSWcJXLtagutetBiNLJvmpYy5fnSe8EvOrSHhTKnulXXfdNQ47UVFgS4d/+Zd/6ekJsc6Ej/lSdK6dvj865Xbm/vVC1fHHPDOqcd2MCZIYqqQsNkgdImlX1QkfyRvznF75ylfGizMmfrPAgs2WGSbiWCaBa6yyMD+NigwXtFRlOM/NmjUrVlqpcn3jG9+I0zhYNV61Os9/DIUz4pFy/DIlo3kOdJXqPP+ViDc+5zqlsldq7D84L7IgqZdTNKqOv3KxRrfzF4o4TMmoSuUJX7dx0I/HhI8kj5VRQ21v0QmGnM4777x4xcdQORNKSWp6pc4THkNlfMB6pzjg6SzqHBKqMv5oL4awSTJYsNHOvLPh0IasEqTSxRA5VeUqVZ3wMRREosFVPavgmxdlUU3nXEaSR/LL8U07U/nj50s8j0UvDOfuueee4Ytf/GI8bqtW5/mPC7YTTzxxnXZpB7E3Z86cWvd8rDvhI8ljcQdJRzc09h+sxufCpqxe90JdCV+3cbFWZcJX6WU1JzJOWN28dSvbHmvYK6lbyR7KduRvxIm0G1d9/YqDjAn0ncwBokNm3lWdyV7V6Jw+8pGPxAUCJCokfZ/5zGfi5GyGFFuptNDmVFXe//73xwsVtn9gpSWT7/le6pSEfscFAjHHYjOqy6za/dznPhcWLlwYq6ck0+yVRmLN0C1fkwizyINjnUo+C6mYu0fHwz5yVOJJfMYb5juyoruTyiarmNmkfqxv8J2KeeHdSvbQ2H+g02S8n+WQv/S0wke2T1WPPz6TvTm5dRsrZpgHBFZPVjWfr84rXNqTvfq6+UHVZUmejoZ5HgyzdXJCbVU/DGkwb4X3S5zSlsOt2iW5Y2iNzoJ95frhIqOq+KMqxTHGBQDbqPBZrSyyYC5aOWRDJYokhWSQeY0kb7QRyTHtRedK+5XPp72Z08b8FeajUf1nKwcqA1WpusK3bNmyWAVhGxWqmrQNVTyGJlmcxSKExm1ZSKLLtmN1LtvZsNCI12LeLnvKHXfccfF1xtscvhLtxEUD7cGwOO3XnGgQh8zZpYJMO9JWdLR1q/v8x9Yi3Uz4mvsPVul2uqimFVXEH/P2yqoeoxHMUew2LgDZCxZcwPX6ffU04aPBKL+XCIBud5ZcLZcTTnl9SslVqPOER4fJ0FA3sdEyO7Jz0uQEScLXy936qzjhcUIrKyfECR0EsUKnwI37PEbHO9qkZToJ5pvxX670iGNu5VUfscf8DpKWKjqUquKP7WtIPmgjVoSSAILhfiqdJCJM0uZkxYmeiy6GcmjPsv1JBtmahE6ZVXx00GV7U61hXzoSxV5v1tqo6oTv05/+dEyUqaywYIhEl86kbM9W0OmwLQuLPpjLx9/kYx/7WNzLr2pVxB8XYSwCYH9B4qM8hsvjuDx2SZJHqxBz7BKzxCbHZ3kcl8cuccvcMyqorVSsU9WZ8HFcdmMvuUbN/QfTDsZ6wsenhzBftNTr/IX+9uCDD473e6XShK/XxkvCR0WEOUHdxFYvrPalQ2JSOPMKxmqFj46A5IIJxM1X/L1Gx0IC1Osho6rijwoUW/Sw1QIXGosWLYpDuj/72c9iZYq2bgdJMZ9jysbLVAsZ6qTTZV+qkTYb77aqO1zm29HJcoxxkk/FdlRclDEPiypX1XoZfyRvVIu4OBjtQqzbSAr5ODK2zOh2596ozoSv8ePXuqW5/2BefS8T5zoSvl6rIuGrdmmcuqIX853KOWlcLXOiq6JK1QskeCQpVAWqTvbA34aKC8lQHb+/25h3RvLPnDM+to8LKubdMQePjoMkhr3l5s+fHxf6MGTJJxnsu+++cTPWT33qU3H6AfP/mKvGzzCUy+Mki2yvwfBPpzv8jxUs1CAumRaQemyVi6l4zTqSvV4iweN9saiq6mQPnP/Y8obtw3I4fofS7kVaKxr7D/QyWVbnelrho7zL3JSqUJGiulKFOit8JBV0kN08IVJ5YZ4VQySsyuz1hta9usJlPhmT3DvFiYql8pzsU1aj8jokR726yq06/hiaJYmlukwVk8rci1/84jg3l01s+aQHEpHmEz2dSzmXl4SPPb/YioT7DAGXc6t4zSrVWWFh5S2JL+3CUCVDbCMdywxD0qFyfqPN+mHBUK/ijz6DT2zoNNki/thlgPZkUVunr8Nwby/nMdcZf7QN1fRuJrSN/Qd/Q+K0l6o4/3GOYq5xVaiM9vqzxCvbliU3dSZ8OejlCY89zZhKwImNuTmctEm8GveF4nuc8MqTHid4OlamBZTJB4k1nTH/LTtkOhRuPB/8PEkNc7FIlOnAqeAwObyXw7p1xh/vl3l5DJnzXxKXMmkp50hxn8SGtqPtSVLoBEgMWXzQzf2sOlFnh9uMtqKjpK1oW2KK+CJeaTvas862Gkov449haha5ED/M8WTuIscxbUE7lMdceQyDtuJCjQoqC1nABRsXKuX2NiiP3bJN+XmG2Dl2mWfKkCTH//Tp0+Owbq/0U/yNRfa/nTHh65ABl8YTXhrjL43xl8b4S2P8pTH+OuMcPkmSpMyZ8EmSJGXOhE+SJClzJnySJEmZM+GTJEnKnAmfJElS5kz4JEmSMmfCJ0mSlDkTPkmSpMyZ8EmSJGXOhE+SJClzJnySJEmZM+GTJEnKnAmfJElS5kz4JEmSMmfCJ0mSlDkTPkmSpMyZ8EmSJGXOhE+SJClzJnySJEmZM+GTJEnK3IRbbrllTXFfkiRJGbLCJ0mSlDkTPkmSpMyZ8EmSJGXOhE+SJClzJnySJEmZM+GTJEnKnAmfJElS5kz4JEmSMufGy5KkaMGcWeGEq9evA6zear9w0jF7hskTJhSP1GP5/FnhsEU7hyMXfyJMa/Hfsmb5/LDL4UvCrCPOC4dOS//3r7luQThw9vHh6okPt9Pq1VuFnfefGw7da3LXf5/ULVb4JEnRXscuCYsWLQrnHTErfk3SwtdLjt2r9mSv32y134mxbbgduXMIi44/Kiy4zvqJ+pcJnyRpVFSudt555zBnwXXxa6pts2bND8vXrAlr1iwP82cNfD1nTpjDfwceX3bxd+L9OfPnh/lzeGxOmF/8LKiU8TivOWvO/GGTpesWzFn7nAuKx0qtvkaj6xbMj/+u+DNN/6b1vre8tQRuh+lTwsSJV4drHn6ptYb7ffzbW26f0f6dXXgPyp8JnySpO1ZMCfssXhyWLDk0THv6YEVwxcotw97HnBT2n7oiLDr+1LUJ4udnHx8WTTkynHjeeeGkmSvD8bMPXC9hI+k56vgVsZq2+JjpISwqvjGA7zG0unLmSeG8804MR05ZNPAan4+vP5zB11sZZp60uKjMNfyb4vcGfsHORz78vcNGfr3ShRcsCqtXzwrTdygeKIz0+0ottc+RU8KSE/aNyVuv3oPyZ8InSeqOnaevN7du6swdw+QJk8MWU4oHBqw67eSB3G1q2H/vHeJQ8eY7zhz4akU4f9mq4hmDVi07f+DRqWHmjpuHCROmhek7F98YsO73JocdBr45ceKScMGFxROGMGHyXuGYxXPDFstOC/PnzAmHL6ELXBmubfi1KxadHObMXx4m710krsMMZV89kIBRRePG60wdeO+Ti++VWvl9Q7XPQAYZlkycONCcg+0zedqhMYFjTmA334PGFxM+SVK9Nt8ikO+sGGpMtMHkLacW9wYxjHrCvrvEpIuFEljZmPk0oQJ24E6zw2HnXxO23GduOGLW6uI7g8nZPvtPja959ZLDw74Drztn/oJw3TDVscY5fCceMSv+zFGnrfu7R/p9I1l17cri3vq6+R40vpjwSZLqteraQIozdcvmGtm6rrtmRXFvEKtj9ztxcGFJeTt2r+Ffo6wK7j/3E2GvaeXzpoQtNh+8N22vY+Pw8IlH7BdmbbV6IGk6IZw6QsWwtPkO08Os1avXS1hH+33D2Xydct+6evUelD8TPknS6CZvGbYaSGrAHLMLGubTtascwj1+IBOh+tQ4PNuocai3+Xc2DwOzuINFCqMt3CgXV6y5rny9weHQclHKgacNvNVpe4W9ZzaMH49iVTEEO1TCOtzvG1GRQC66YLB9qOrFBR7F4oxevAflz4RPkjSqOFy489Q4d22nAy8IISGXiPPQTto/7LzysLDvLruE2edPCfufdEzYa/K6c8143tz9h/6d8TXYD+X42THJmX08axXWf41Gm+85N+y31eqw5PBdwk6zTx74gcHhT5KnCdMOjUOzD7/eyjBrvxOH3UuvcQ7fvocvCVvNOiLM3bMpYR3h942E+YqfaGifXfY9gTcXq5fdfA8aX9x4WZIkKXNW+CRJkjJnwidJkpQ5Ez5JkqTMmfBJkiRlzoRPkiQpcyZ8kiRJmTPhkyRJyloI/x+sQpoTirJvegAAAABJRU5ErkJggg==;fillColor=#09555B;strokeColor=#BAC8D3;fontColor=#EEEEEE;" vertex="1" parent="1">
          <mxGeometry x="353.21999999999997" y="-40" width="93.56" height="107.39" as="geometry" />
        </mxCell>
        <mxCell id="iTIWu8l_zDlVCEhsfP-i-34" value="" style="edgeStyle=orthogonalEdgeStyle;rounded=0;orthogonalLoop=1;jettySize=auto;html=1;labelBackgroundColor=none;strokeColor=#0B4D6A;fontColor=default;" edge="1" parent="1" source="iTIWu8l_zDlVCEhsfP-i-14" target="iTIWu8l_zDlVCEhsfP-i-33">
          <mxGeometry relative="1" as="geometry" />
        </mxCell>
        <mxCell id="iTIWu8l_zDlVCEhsfP-i-14" value="5º" style="whiteSpace=wrap;html=1;aspect=fixed;labelBackgroundColor=none;fillColor=#09555B;strokeColor=#BAC8D3;fontColor=#EEEEEE;" vertex="1" parent="1">
          <mxGeometry x="110" y="260" width="60" height="60" as="geometry" />
        </mxCell>
        <mxCell id="iTIWu8l_zDlVCEhsfP-i-32" style="edgeStyle=orthogonalEdgeStyle;rounded=0;orthogonalLoop=1;jettySize=auto;html=1;entryX=0.5;entryY=1;entryDx=0;entryDy=0;labelBackgroundColor=none;strokeColor=#0B4D6A;fontColor=default;" edge="1" parent="1" source="iTIWu8l_zDlVCEhsfP-i-15" target="iTIWu8l_zDlVCEhsfP-i-14">
          <mxGeometry relative="1" as="geometry" />
        </mxCell>
        <mxCell id="iTIWu8l_zDlVCEhsfP-i-15" value="6º" style="whiteSpace=wrap;html=1;aspect=fixed;labelBackgroundColor=none;fillColor=#09555B;strokeColor=#BAC8D3;fontColor=#EEEEEE;" vertex="1" parent="1">
          <mxGeometry x="220" y="360" width="60" height="60" as="geometry" />
        </mxCell>
        <mxCell id="iTIWu8l_zDlVCEhsfP-i-27" value="" style="edgeStyle=orthogonalEdgeStyle;rounded=0;orthogonalLoop=1;jettySize=auto;html=1;labelBackgroundColor=none;strokeColor=#0B4D6A;fontColor=default;" edge="1" parent="1" source="iTIWu8l_zDlVCEhsfP-i-20">
          <mxGeometry relative="1" as="geometry">
            <mxPoint x="535" y="185" as="targetPoint" />
          </mxGeometry>
        </mxCell>
        <mxCell id="iTIWu8l_zDlVCEhsfP-i-30" value="" style="edgeStyle=orthogonalEdgeStyle;rounded=0;orthogonalLoop=1;jettySize=auto;html=1;labelBackgroundColor=none;strokeColor=#0B4D6A;fontColor=default;" edge="1" parent="1" source="iTIWu8l_zDlVCEhsfP-i-20" target="iTIWu8l_zDlVCEhsfP-i-1">
          <mxGeometry relative="1" as="geometry" />
        </mxCell>
        <mxCell id="iTIWu8l_zDlVCEhsfP-i-20" value="7º" style="rounded=0;whiteSpace=wrap;html=1;labelBackgroundColor=none;fillColor=#09555B;strokeColor=#BAC8D3;fontColor=#EEEEEE;" vertex="1" parent="1">
          <mxGeometry x="500" y="145" width="70" height="40" as="geometry" />
        </mxCell>
        <mxCell id="iTIWu8l_zDlVCEhsfP-i-36" style="edgeStyle=orthogonalEdgeStyle;rounded=0;orthogonalLoop=1;jettySize=auto;html=1;labelBackgroundColor=none;strokeColor=#0B4D6A;fontColor=default;" edge="1" parent="1" source="iTIWu8l_zDlVCEhsfP-i-33" target="iTIWu8l_zDlVCEhsfP-i-1">
          <mxGeometry relative="1" as="geometry" />
        </mxCell>
        <mxCell id="iTIWu8l_zDlVCEhsfP-i-33" value="8º" style="whiteSpace=wrap;html=1;aspect=fixed;labelBackgroundColor=none;fillColor=#09555B;strokeColor=#BAC8D3;fontColor=#EEEEEE;" vertex="1" parent="1">
          <mxGeometry x="110" y="135" width="60" height="60" as="geometry" />
        </mxCell>
        <mxCell id="iTIWu8l_zDlVCEhsfP-i-38" value="Inicializacion Tablero" style="text;html=1;strokeColor=none;fillColor=none;align=center;verticalAlign=middle;whiteSpace=wrap;rounded=0;labelBackgroundColor=none;fontColor=#EEEEEE;" vertex="1" parent="1">
          <mxGeometry x="350" y="-60" width="100" height="20" as="geometry" />
        </mxCell>
      </root>
    </mxGraphModel>
  </diagram>
</mxfile>
